<?xml version="1.0" encoding="UTF-8" standalone="no"?>
<svg id="svg2" xmlns:rdf="http://www.w3.org/1999/02/22-rdf-syntax-ns#" xmlns="http://www.w3.org/2000/svg" height="506pt" width="645pt" version="1.1" xmlns:cc="http://creativecommons.org/ns#" xmlns:dc="http://purl.org/dc/elements/1.1/" viewBox="0 0 645 506">
<path id="rect4168" d="m478.48 2.1031c-30.18 0.3465-60.38 12.459-82.85 32.547-14.11 11.13-30.159 19.5-44.989 29.57-4.1906-0.61125-8.333-0.90619-12.425-0.91563-39.556-0.09124-74.397 26.52-102.45 52.466-39 36.91-70.39 80.68-102.72 123.27-44.3 28.34-89.699 56.35-130.21 89.95 13.74 7.53 27.329 20.849 43.969 18.089 39.64-29.43 76.921-62.21 116.06-92.2-32.77 36.93-69.31 71.22-102.75 107.3 3 10.61 9.09 23.39 20.9 25.7 12.98-1.9 18.49-15.72 26.37-24.48 27.81-32.48 58.669-62.18 89.569-91.68 18.38 21.24 43.001 37.56 70.611 43.75 6.59 0.92 12.48 3.9994 18.48 6.6594-4.15 41.44-9.4097 82.89-8.6797 124.58-10.91-1.48-19.731-8.73-29.941-12.25-5.79-2.9-10.29 6.21-5.25 9.35 8.88 5.16 18.38 9.4206 28.08 12.841 13.66 10.54 23.76 25.809 27.02 42.859 1.74 5.09 9.3997 4.12 10.48-0.85-0.48-9.47-5.2294-18.01-8.7594-26.58 10.68 2.68 16.571 21.781 28.341 16.141 1.59-12.55-15.26-18.45-22.37-27.05 5.7 1.9 17.28 3.84 15.85-5.65-7.77-9.01-23.41-3.4906-32.57-7.8406 0.31-40.56 5.3497-81.03 8.8797-121.48 17.26 4.33 35.02 7.1603 52.87 5.5703 6.27 19.15 15.34 37.18 22.05 56.18 8.18 15.06 16.66 30.65 17.72 48.18-9.78-0.57-19.41-2.8697-29.25-2.7797-4.72 0.51-5.7897 7.82-1.6797 10.05 11.55 3.02 24.159 2.0694 35.639 5.0594 3.49 8.16 8.9209 15.55 10.461 24.45 1.8 4.65 9.2991 3.6909 10.039-1.2391 0.36-8.42-4.8-15.43-7.75-22.87 12.6 6.98 25.261 14.75 34.361 26.17 16.21-0.19 0.7288-17.861-5.5812-21.341 6.52-2.82 15.84 4.4103 22.35-0.37969 3.6-3.63 0.59-9.09-3.9-9.95-17.46-2.84-35.169-3.7297-52.739-5.7297-5.08-37.82-29.88-69.381-38.73-106.31 60.15-5.84 119.23-42.96 141.91-100.38 3.43-13.38 14.05-23.589 16.73-37.239 5.33-20.22 0.4597-41.461-6.5703-60.431 12.92-10.04 26.271-21.849 34.941-36.269 30.07-3.43 61.599-1.9503 91.009-4.6703-26.12-6.71-52.1-13.99-77.98-21.57 24.62-1.72 52.84 2.4494 78.13 0.60938-28-9.56-56.13-18.749-84.43-27.359-5.44-17.7-23.05-28.66-39.4-35.27-11.59-4.2978-23.74-6.4055-35.93-6.5738-0.97-0.0134-1.94-0.0143-2.92-0.0031z"/>
</svg>
